<?xml version="1.0" encoding="UTF-8" standalone="no" ?>
<!DOCTYPE svg PUBLIC "-//W3C//DTD SVG 1.1//EN" "http://www.w3.org/Graphics/SVG/1.1/DTD/svg11.dtd">
<svg xmlns="http://www.w3.org/2000/svg" xmlns:xlink="http://www.w3.org/1999/xlink" version="1.1" width="500" height="500" viewBox="0 0 500 500" xml:space="preserve">
<desc>Created with Fabric.js 3.6.3</desc>
<defs>
</defs>
<g transform="matrix(2.2 0 0 1 254.9 161)"  >
<polygon style="stroke: rgb(0,0,0); stroke-width: 0; stroke-dasharray: none; stroke-linecap: butt; stroke-dashoffset: 0; stroke-linejoin: miter; stroke-miterlimit: 4; fill: rgb(255,255,255); fill-rule: nonzero; opacity: 1;" vector-effect="non-scaling-stroke"  points="-50,-50 -50,50 50,50 50,-50 " />
</g>
<g transform="matrix(0.78 0 0 0.78 249.68 285.71)"  >
<g style=""   >
		<g transform="matrix(1.54 0 0 1.54 3.41 0.43)"  >
<polygon style="stroke: rgb(0,0,0); stroke-width: 0; stroke-dasharray: none; stroke-linecap: butt; stroke-dashoffset: 0; stroke-linejoin: miter; stroke-miterlimit: 4; fill: rgb(255,255,255); fill-rule: nonzero; opacity: 1;"  points="-50,-50 -50,50 50,50 50,-50 " />
</g>
		<g transform="matrix(1 0 0 1 -33.11 1.85)"  >
<line style="stroke: rgb(0,0,0); stroke-width: 2; stroke-dasharray: none; stroke-linecap: butt; stroke-dashoffset: 0; stroke-linejoin: miter; stroke-miterlimit: 4; fill: rgb(0,0,0); fill-rule: nonzero; opacity: 1;"  x1="-0.4998177083333246" y1="-77.99458333333334" x2="0.4998177083333246" y2="77.99458333333334" />
</g>
		<g transform="matrix(1 0 0 1 5.38 -0.15)"  >
<line style="stroke: rgb(0,0,0); stroke-width: 2; stroke-dasharray: none; stroke-linecap: butt; stroke-dashoffset: 0; stroke-linejoin: miter; stroke-miterlimit: 4; fill: rgb(0,0,0); fill-rule: nonzero; opacity: 1;"  x1="0" y1="-75.99472222222224" x2="0" y2="75.99472222222224" />
</g>
		<g transform="matrix(1 0 0 1 37.87 0.85)"  >
<line style="stroke: rgb(0,0,0); stroke-width: 2; stroke-dasharray: none; stroke-linecap: butt; stroke-dashoffset: 0; stroke-linejoin: miter; stroke-miterlimit: 4; fill: rgb(0,0,0); fill-rule: nonzero; opacity: 1;"  x1="0.49981770833335304" y1="-76.99465277777776" x2="-0.49981770833335304" y2="76.99465277777776" />
</g>
		<g transform="matrix(1 0 0 1 0.38 -45.64)"  >
<line style="stroke: rgb(0,0,0); stroke-width: 2; stroke-dasharray: none; stroke-linecap: butt; stroke-dashoffset: 0; stroke-linejoin: miter; stroke-miterlimit: 4; fill: rgb(0,0,0); fill-rule: nonzero; opacity: 1;"  x1="-77.97156249999998" y1="-0.49996527777778965" x2="77.97156249999998" y2="0.49996527777778965" />
</g>
		<g transform="matrix(1 0 0 1 -0.12 -17.14)"  >
<line style="stroke: rgb(0,0,0); stroke-width: 2; stroke-dasharray: none; stroke-linecap: butt; stroke-dashoffset: 0; stroke-linejoin: miter; stroke-miterlimit: 4; fill: rgb(0,0,0); fill-rule: nonzero; opacity: 1;"  x1="-77.47174479166665" y1="0" x2="77.47174479166665" y2="0" />
</g>
		<g transform="matrix(1 0 0 1 -1.12 44.85)"  >
<line style="stroke: rgb(0,0,0); stroke-width: 2; stroke-dasharray: none; stroke-linecap: butt; stroke-dashoffset: 0; stroke-linejoin: miter; stroke-miterlimit: 4; fill: rgb(0,0,0); fill-rule: nonzero; opacity: 1;"  x1="-77.47174479166668" y1="0" x2="77.47174479166668" y2="0" />
</g>
		<g transform="matrix(1 0 0 1 -0.62 14.85)"  >
<line style="stroke: rgb(0,0,0); stroke-width: 2; stroke-dasharray: none; stroke-linecap: butt; stroke-dashoffset: 0; stroke-linejoin: miter; stroke-miterlimit: 4; fill: rgb(0,0,0); fill-rule: nonzero; opacity: 1;"  x1="-76.97192708333336" y1="0" x2="76.97192708333336" y2="0" />
</g>
		<g transform="matrix(2.59 0 0 2.59 6.29 6.29)"  >
<path style="stroke: rgb(69,171,234); stroke-width: 8; stroke-dasharray: none; stroke-linecap: butt; stroke-dashoffset: 0; stroke-linejoin: miter; stroke-miterlimit: 4; fill: rgb(69,171,234); fill-rule: evenodd; opacity: 1;"  transform=" translate(-50, -50)" d="M 80 80 V 20 H 20 v 60 z m 20 20 V 0 H 0 v 100 z" stroke-linecap="round" />
</g>
</g>
</g>
<g transform="matrix(1 0 0 1 256.27 178.17)"  >
<g style=""   >
		<g transform="matrix(0 -0.7 0.85 0 -23.89 2.25)"  >
<path style="stroke: rgb(0,0,0); stroke-width: 8; stroke-dasharray: none; stroke-linecap: butt; stroke-dashoffset: 0; stroke-linejoin: miter; stroke-miterlimit: 4; fill: none; fill-rule: nonzero; opacity: 1;"  transform=" translate(-62.2, -20.73)" d="m 20.013628 0 l 84.37401 0 l 0 0 c 11.053215 -1.04756605e-14 20.013626 9.282301 20.013626 20.7326 c 0 11.450296 -8.960411 20.7326 -20.013626 20.7326 l -84.37401 0 l 0 0 c -11.053222 0 -20.013628 -9.282303 -20.013628 -20.7326 c -5.2380687e-15 -11.450298 8.960406 -20.7326 20.013628 -20.7326 z" stroke-linecap="round" />
</g>
		<g transform="matrix(0 -0.71 0.85 0 -81.66 1.59)"  >
<path style="stroke: rgb(0,0,0); stroke-width: 8; stroke-dasharray: none; stroke-linecap: butt; stroke-dashoffset: 0; stroke-linejoin: miter; stroke-miterlimit: 4; fill: none; fill-rule: nonzero; opacity: 1;"  transform=" translate(-62.2, -20.73)" d="m 20.013628 0 l 84.37401 0 l 0 0 c 11.053215 -1.04756605e-14 20.013626 9.282301 20.013626 20.7326 c 0 11.450296 -8.960411 20.7326 -20.013626 20.7326 l -84.37401 0 l 0 0 c -11.053222 0 -20.013628 -9.282303 -20.013628 -20.7326 c -5.2380687e-15 -11.450298 8.960406 -20.7326 20.013628 -20.7326 z" stroke-linecap="round" />
</g>
		<g transform="matrix(0.86 0 0 0.86 33.96 -0.88)"  >
<g style=""   >
		<g transform="matrix(1 0 0 1 0.75 0)"  >
<line style="stroke: rgb(0,0,0); stroke-width: 7; stroke-dasharray: none; stroke-linecap: butt; stroke-dashoffset: 0; stroke-linejoin: miter; stroke-miterlimit: 4; fill: rgb(0,0,0); fill-rule: nonzero; opacity: 1;"  x1="-0.4998000000000218" y1="-51.979200000000006" x2="0.4998000000000218" y2="51.979200000000006" />
</g>
		<g transform="matrix(1 0 0 1 -2.75 49.98)"  >
<line style="stroke: rgb(0,0,0); stroke-width: 7; stroke-dasharray: none; stroke-linecap: butt; stroke-dashoffset: 0; stroke-linejoin: miter; stroke-miterlimit: 4; fill: rgb(0,0,0); fill-rule: nonzero; opacity: 1;"  x1="-20.491799999999984" y1="0" x2="20.491799999999984" y2="0" />
</g>
		<g transform="matrix(1 0 0 1 -10.99 -38.73)"  >
<line style="stroke: rgb(0,0,0); stroke-width: 7; stroke-dasharray: none; stroke-linecap: butt; stroke-dashoffset: 0; stroke-linejoin: miter; stroke-miterlimit: 4; fill: rgb(0,0,0); fill-rule: nonzero; opacity: 1;"  x1="10.248947107874045" y1="-10.24894710787406" x2="-10.248947107874045" y2="10.24894710787406" />
</g>
</g>
</g>
		<g transform="matrix(0.86 0 0 0.86 81.4 -0.01)"  >
<g style=""   >
		<g transform="matrix(1 0 0 1 0.75 0)"  >
<line style="stroke: rgb(0,0,0); stroke-width: 7; stroke-dasharray: none; stroke-linecap: butt; stroke-dashoffset: 0; stroke-linejoin: miter; stroke-miterlimit: 4; fill: rgb(0,0,0); fill-rule: nonzero; opacity: 1;"  x1="-0.4998000000000218" y1="-51.979200000000006" x2="0.4998000000000218" y2="51.979200000000006" />
</g>
		<g transform="matrix(1 0 0 1 -2.75 49.98)"  >
<line style="stroke: rgb(0,0,0); stroke-width: 7; stroke-dasharray: none; stroke-linecap: butt; stroke-dashoffset: 0; stroke-linejoin: miter; stroke-miterlimit: 4; fill: rgb(0,0,0); fill-rule: nonzero; opacity: 1;"  x1="-20.491799999999984" y1="0" x2="20.491799999999984" y2="0" />
</g>
		<g transform="matrix(1 0 0 1 -10.99 -38.73)"  >
<line style="stroke: rgb(0,0,0); stroke-width: 7; stroke-dasharray: none; stroke-linecap: butt; stroke-dashoffset: 0; stroke-linejoin: miter; stroke-miterlimit: 4; fill: rgb(0,0,0); fill-rule: nonzero; opacity: 1;"  x1="10.248947107874045" y1="-10.24894710787406" x2="-10.248947107874045" y2="10.24894710787406" />
</g>
</g>
</g>
</g>
</g>
</svg>